<?xml version="1.0" encoding="UTF-8"?> <svg xmlns="http://www.w3.org/2000/svg" viewBox="0 0 272.8 65.78"><defs><style>.cls-1{fill:#6cc04a;}.cls-2{fill:#2c82c9;}.cls-3{fill:#3e4543;}</style></defs><g id="Layer_2" data-name="Layer 2"><g id="Layer_1-2" data-name="Layer 1"><path class="cls-1" d="M57,21.31H44.8c-.3-2.8-.8-4.1-1.6-5.2l-.2-.2,3.2-12.3a18.5,18.5,0,0,1,5.1,3.7l.4.4C54.8,11.31,56.4,15,57,21.31Z"></path><path class="cls-2" d="M45.1,3.11,37,12.71a45.72,45.72,0,0,0-8.3-.5h-.1c-8.7,0-12,1.1-13.7,3a3.92,3.92,0,0,0-.8,1c-.7,1-1.2,2.3-1.6,5.2H.3C1,15,2.5,11.31,5.7,7.71l.3-.4C11,2,20,.11,28.7,0a43.35,43.35,0,0,1,15.9,2.8Z"></path><path class="cls-3" d="M51.3,54.11c4.5-4.8,5.9-11,6-22.4h0V30q0-5.1-.3-8.7H44.8a63.26,63.26,0,0,1,.3,8.7v.7h0c0,12-.9,13.6-2.7,15.6s-5,3-13.7,3h-.1c-8.7,0-12-1.1-13.7-3s-2.7-3.4-2.7-15.5V30q0-4.35.3-8.7H.3C.1,23.81,0,26.61,0,30v1.5H0C.1,43,1.5,49.31,6,54.11c5,5.3,13.9,7.3,22.6,7.3,1.1,0,2.2,0,3.2-.1a1.78,1.78,0,0,1,1,.4c6.6,6.5,17,3.7,20.5,1.9a.48.48,0,0,0,.2-.6,1.38,1.38,0,0,0-.4-.3,6.58,6.58,0,0,1-5-4.9,1.28,1.28,0,0,1,.4-1.4A12.27,12.27,0,0,0,51.3,54.11Z"></path><path class="cls-3" d="M115,20.51H102.5v-9.1a.47.47,0,0,0-.5-.5H94.8a.47.47,0,0,0-.5.5v32.1a31.79,31.79,0,0,0,.6,6.2,8.55,8.55,0,0,0,2.2,4.2,9.19,9.19,0,0,0,4.4,2.2,25.73,25.73,0,0,0,6.8.6h6.5a.47.47,0,0,0,.5-.5h0v-5.8a.47.47,0,0,0-.5-.5h-6.6a15.53,15.53,0,0,1-3.1-.3,3.15,3.15,0,0,1-1.7-.9,4.55,4.55,0,0,1-.8-1.9,21.74,21.74,0,0,1-.2-3.6V27.41H115a.47.47,0,0,0,.5-.5h0V21c0-.4-.2-.6-.5-.5Z"></path><path class="cls-3" d="M139.2,20.31h-8a26.66,26.66,0,0,0-5.6.6,11.74,11.74,0,0,0-4.4,2,9.34,9.34,0,0,0-2.8,3.7,14.36,14.36,0,0,0-1,5.4v24.1a.47.47,0,0,0,.5.5h7.2a.47.47,0,0,0,.5-.5h0V33.61a28.25,28.25,0,0,1,.2-2.9,3.86,3.86,0,0,1,.8-2,3.6,3.6,0,0,1,1.8-1.2,11.07,11.07,0,0,1,3.6-.4h7.3a.47.47,0,0,0,.5-.5h0v-5.9a.68.68,0,0,0-.6-.4Z"></path><path class="cls-3" d="M169.9,23.31a11.5,11.5,0,0,0-4.8-3,21.89,21.89,0,0,0-7.6-1.1,22.67,22.67,0,0,0-8.2,1.2,11.68,11.68,0,0,0-5,3.5,12.54,12.54,0,0,0-2.5,5.5,33.53,33.53,0,0,0-.7,7.1v3.8a37.93,37.93,0,0,0,.6,6.7,12.33,12.33,0,0,0,2.5,5.3,11.26,11.26,0,0,0,5,3.3,27.22,27.22,0,0,0,8,1.2l12.9-.1a.47.47,0,0,0,.5-.5v-5a1.54,1.54,0,0,0-1.5-1.5h0c-1.8,0-10.8.1-11.9.1a20.87,20.87,0,0,1-4.3-.4,4.64,4.64,0,0,1-2.3-1.2,5.82,5.82,0,0,1-1.2-2.5,21.86,21.86,0,0,1-.3-3.6.6.6,0,0,1,.1-.4c.1-.1.2-.1.3-.2h17.8a16.41,16.41,0,0,0,2.3-.2,3.22,3.22,0,0,0,1.8-1.2,5.6,5.6,0,0,0,1-2.4,26.93,26.93,0,0,0,.3-4v-1a20.74,20.74,0,0,0-.6-5A8.76,8.76,0,0,0,169.9,23.31Zm-20.7,11.3a28.28,28.28,0,0,1,.3-4.1,6.47,6.47,0,0,1,1.1-2.9,4.25,4.25,0,0,1,2.3-1.4,19.92,19.92,0,0,1,4.2-.4,19,19,0,0,1,4.1.4,5.45,5.45,0,0,1,2.4,1.2,4.32,4.32,0,0,1,1.2,2.2,15,15,0,0,1,.4,3.7V35H149.7a.76.76,0,0,1-.4-.2c-.1,0-.1-.1-.1-.2Z"></path><path class="cls-3" d="M202.5,23.31c-2.5-2-6.6-3-12.2-3-1.6,0-8.1.1-10.7.1a1.45,1.45,0,0,0-1.4,1.5h0v4a1.45,1.45,0,0,0,1.4,1.5h0c2.6,0,9-.1,10.7-.1a23.16,23.16,0,0,1,4.6.4,5.45,5.45,0,0,1,2.4,1.2,3.25,3.25,0,0,1,1,1.8,14.15,14.15,0,0,1,.2,2.9V34a.47.47,0,0,1-.5.5h-.2a17.23,17.23,0,0,0-2.1-.7,28.15,28.15,0,0,0-6.5-.7c-4.9,0-8.5.9-10.8,2.5s-3.6,4.6-3.6,8.6v1.5c0,3.6,1.1,6.4,3.3,8.2s5.7,2.7,10.6,2.7h10.2c2.8,0,4.7-.5,5.8-1.4s1.7-2.7,1.7-5V32.31Q206.4,26.31,202.5,23.31Zm-3.9,26.6h-9.9c-2.4,0-4.1-.4-4.9-1.1a3.89,3.89,0,0,1-1.3-3.2v-1.4a7.8,7.8,0,0,1,.3-2.2,2.56,2.56,0,0,1,1-1.3,5.22,5.22,0,0,1,2.1-.7,21.74,21.74,0,0,1,3.6-.2h1.6a28.28,28.28,0,0,1,4.1.3,5.84,5.84,0,0,1,2.2.8,2.38,2.38,0,0,1,.9,1.3,5,5,0,0,1,.2,2.1Z"></path><path class="cls-3" d="M256.2,22c-2.5-1.8-6.2-2.7-10.9-2.7a18.68,18.68,0,0,0-6.6,1.1,9.86,9.86,0,0,0-3.7,2.2.48.48,0,0,1-.7,0h0a9.36,9.36,0,0,0-3.7-2.2,20.76,20.76,0,0,0-6.6-1.1c-4.8,0-8.4.9-10.9,2.7s-3.8,4.9-3.8,9.3v24.9a.47.47,0,0,0,.5.5H217a.47.47,0,0,0,.5-.5h0V32.71a26.42,26.42,0,0,1,.2-2.9,3.86,3.86,0,0,1,.8-2,3.47,3.47,0,0,1,1.9-1.2,15.85,15.85,0,0,1,7.5,0,3.4,3.4,0,0,1,2.6,3.1c.1,1,.2,2,.2,2.9v23.5a.47.47,0,0,0,.5.5h7.2a.47.47,0,0,0,.5-.5h0V31.81a21.05,21.05,0,0,1,.2-2.5,3.15,3.15,0,0,1,.9-1.7,4.35,4.35,0,0,1,1.9-1,14.47,14.47,0,0,1,3.5-.4,16.37,16.37,0,0,1,3.8.4,3.87,3.87,0,0,1,1.9,1.2,4.55,4.55,0,0,1,.8,1.9c.1,1,.2,2,.2,2.9V56a.47.47,0,0,0,.5.5h7.2a.47.47,0,0,0,.5-.5V31.31C260,27,258.7,23.91,256.2,22Z"></path><path class="cls-3" d="M92.1,41.81a8.53,8.53,0,0,0-4.6-5.7,13.3,13.3,0,0,0-5.2-1.3L74.4,34a7,7,0,0,1-2.5-.5,3.29,3.29,0,0,1-1.3-.7,1.19,1.19,0,0,1-.5-.9,7.72,7.72,0,0,1-.2-1.5,2.88,2.88,0,0,1,1.1-2.6c.7-.5,2.1-.7,4.6-.7H89.2a1.16,1.16,0,0,0,1.2-1.2h0v-4.5a1.2,1.2,0,0,0-1.1-1.2c-2.5-.1-10.6-.1-12.9-.1q-7.5,0-10.8,2.7a8.62,8.62,0,0,0-3.3,6.4,15,15,0,0,0,0,3,12.82,12.82,0,0,0,.5,2.7,9,9,0,0,0,1.7,3,9.32,9.32,0,0,0,3,2.2,13.51,13.51,0,0,0,4.5,1.1l8.2.8a6.44,6.44,0,0,1,2.4.5,3.53,3.53,0,0,1,1.3.8,2.07,2.07,0,0,1,.6,1,7.57,7.57,0,0,1,.1,1.5c0,1.5-.4,2.6-1.2,3.1s-2.6.8-5.2.8H59.3v6.9l18.5.1c4.9,0,8.6-.9,11-2.8a9.58,9.58,0,0,0,3.7-8v-1C92.4,43.91,92.3,42.81,92.1,41.81Z"></path><path class="cls-3" d="M268.4,47.91a4.28,4.28,0,0,1,2.2.6,3.54,3.54,0,0,1,1.6,1.6,4.33,4.33,0,0,1,0,4.4,3.54,3.54,0,0,1-1.6,1.6,4.33,4.33,0,0,1-4.4,0,3.54,3.54,0,0,1-1.6-1.6,4.33,4.33,0,0,1,0-4.4,3.75,3.75,0,0,1,1.7-1.6A3.94,3.94,0,0,1,268.4,47.91Zm0,.7a3.74,3.74,0,0,0-1.8.5,3.16,3.16,0,0,0-1.4,1.4,3.52,3.52,0,0,0,0,3.7,3.16,3.16,0,0,0,1.4,1.4,3.52,3.52,0,0,0,3.7,0,3.16,3.16,0,0,0,1.4-1.4,3.52,3.52,0,0,0,0-3.7,3.16,3.16,0,0,0-1.4-1.4,5.92,5.92,0,0,0-1.9-.5Zm-1.9,6.2v-4.7h1.6a4.87,4.87,0,0,1,1.2.1c.2.1.5.2.6.5a1.45,1.45,0,0,1,.2.7,1.09,1.09,0,0,1-.4.9,1.28,1.28,0,0,1-1,.4c.1.1.3.1.4.2a5.5,5.5,0,0,1,.7.9l.6.9h-.9l-.4-.8a4.44,4.44,0,0,0-.8-1.1,1.42,1.42,0,0,0-.6-.2h-.5v2Zm.8-2.7h.9a1.49,1.49,0,0,0,.9-.2.63.63,0,0,0,.1-.9c-.1-.1-.2-.2-.3-.2a2.2,2.2,0,0,0-.8-.1h-.9Z"></path></g></g></svg> 